<svg width="256" height="256" viewBox="0 0 256 256" fill="none" xmlns="http://www.w3.org/2000/svg">
  <rect x="22" y="42" width="212" height="172" rx="36" fill="url(#g)"/>
  <rect x="22" y="42" width="212" height="172" rx="36" stroke="rgba(255,255,255,.55)" stroke-width="6"/>
  <rect x="48" y="80" width="160" height="18" rx="9" fill="rgba(255,255,255,.26)"/>
  <rect x="52" y="122" width="48" height="34" rx="10" fill="url(#chip)"/>
  <path d="M77.8 181.8C64.4 181.8 54 172.1 54 158.5C54 144.8 64.4 135.2 77.8 135.2C88.5 135.2 97.1 140.8 100.1 150.1H89.2C87 146 83.1 143.8 77.7 143.8C69.9 143.8 64.2 149.7 64.2 158.5C64.2 167.3 69.9 173.2 77.7 173.2C83.1 173.2 87.1 171 89.2 166.9H100.1C97.1 176.2 88.5 181.8 77.8 181.8Z" fill="white"/>
  <path d="M108.9 181V136H127.5C138.7 136 146.1 142.7 146.1 152.8C146.1 162.8 138.7 169.6 127.5 169.6H119V181H108.9ZM119 161.1H126.7C132.5 161.1 135.8 158 135.8 152.8C135.8 147.6 132.5 144.5 126.7 144.5H119V161.1Z" fill="white"/>
  <circle cx="199" cy="158" r="21" fill="rgba(255,255,255,.18)"/>
  <circle cx="178" cy="158" r="21" fill="rgba(255,255,255,.12)"/>
  <defs>
    <linearGradient id="g" x1="30" y1="52" x2="230" y2="214" gradientUnits="userSpaceOnUse">
      <stop stop-color="#0F172A"/>
      <stop offset="0.45" stop-color="#2563EB"/>
      <stop offset="1" stop-color="#7C3AED"/>
    </linearGradient>
    <linearGradient id="chip" x1="52" y1="122" x2="100" y2="156" gradientUnits="userSpaceOnUse">
      <stop stop-color="#FEF3C7"/>
      <stop offset="1" stop-color="#F59E0B"/>
    </linearGradient>
  </defs>
</svg>
